# xmcd CD database file generated by OrangeCD 6.5
#
# Track frame offsets:
#	150
#	19914
#	34549
#	53366
#	60427
#	72416
#	102097
#	119740
#	128258
#	153812
#
# Disc length: 2350 seconds
#
# Revision: 0
# Processed by: cddbd v1.5.2PL0 Copyright (c) Steve Scherf et al.
# Submitted via: OrangeCD 6.5
#
DISCID=73092c0a
DTITLE=Pawns or Kings - Pomme de Terre
DYEAR=2014
DGENRE=
TTITLE0=Names and Maps
TTITLE1=Light Over the Ridge
TTITLE2=Wandering
TTITLE3=The First Rain
TTITLE4=Late Have I Loved
TTITLE5=Black Clouds
TTITLE6=Pomme de Terre
TTITLE7=Weaubleau Creek
TTITLE8=The River Will Rise
TTITLE9=Shadow of a Man
EXTD=
EXTT0=
EXTT1=
EXTT2=
EXTT3=
EXTT4=
EXTT5=
EXTT6=
EXTT7=
EXTT8=
EXTT9=
PLAYORDER=
